  <svg xmlns="http://www.w3.org/2000/svg" x="0px" y="0px" viewBox="0 0 108.54 70" style="vertical-align: middle; max-width: 100%; width: 100%;" width="100%">
   <g>
    <path d="M56.65,49c1.8,9.84,9.99,18.14,19.69,20.35c10.49,2.39,21.34-1.97,27.48-10.74   c5.67-8.1,6.4-19.38,1.31-27.94c-5.49-9.23-16.5-14.16-27.06-12.52c2.31-2.91,4.5-5.9,6.74-8.85c1.41-1.86,5.28-5.28,3.75-7.88   c-2.03-3.45-5.06,0.21-6.63,1.86c-2.61,2.73-5.32,5.37-7.89,8.14C64.65,21.51,53.95,34.31,56.65,49z" fill="rgba(223,33,33,0.78)">
    </path>
    <path d="M0.42,49c1.8,9.84,9.99,18.14,19.69,20.35c10.49,2.39,21.34-1.97,27.48-10.74   c5.67-8.1,6.4-19.38,1.31-27.94c-5.49-9.23-16.5-14.16-27.06-12.52c2.31-2.91,4.5-5.9,6.74-8.85c1.41-1.86,5.28-5.28,3.75-7.88   c-2.03-3.45-5.06,0.21-6.63,1.86c-2.61,2.73-5.32,5.37-7.89,8.14C8.42,21.51-2.27,34.31,0.42,49z" fill="rgba(223,33,33,0.78)">
    </path>
   </g>
  </svg>
